<svg width="142" height="148" viewBox="0 0 142 148" fill="none" xmlns="http://www.w3.org/2000/svg">
<path fill-rule="evenodd" clip-rule="evenodd" d="M66.3759 1.34274C69.0455 -0.547988 72.5987 -0.430574 75.1611 1.62301C76.62 2.78434 77.5509 4.28108 77.7802 6.11715C77.9205 7.24153 77.7856 8.4126 77.4443 9.61911L77.706 9.69235L77.7284 9.69918C80.3051 10.4218 82.6955 11.5264 84.8427 12.9375C84.8609 12.9183 84.8813 12.9012 84.9003 12.8828C84.9279 12.8551 84.9563 12.8285 84.9853 12.8027C84.9896 12.799 84.9937 12.7946 84.998 12.791C85.5753 12.2865 86.4102 12.1507 87.1288 12.456C108.51 17.9845 124.794 30.1864 134.258 49.998C145.129 72.7687 143.067 95.133 130.064 116.492C130.363 117.157 130.431 117.846 130.361 118.503C131.325 117.955 132.456 117.25 133.758 116.375L133.867 116.307C134.423 115.983 135.109 115.939 135.706 116.197C136.342 116.473 136.786 117.051 136.877 117.724C137.353 121.252 135.874 125.093 132.995 127.457L132.985 127.465C129.89 129.973 126.217 130.944 122.472 130.944C120.958 130.944 119.558 130.569 118.425 129.753C110.454 136.909 101.38 142.186 90.9775 145.049L89.9335 145.326C65.1482 151.701 42.853 146.661 23.3642 130.381L23.3632 130.38C23.1595 130.209 22.9048 129.99 22.6523 129.723C20.9506 130.902 18.7142 131.167 16.3671 130.786C12.5794 130.17 9.48124 128.901 7.32121 126.686C5.13235 124.442 4.14648 121.474 4.08195 117.955C4.0694 117.26 4.43814 116.611 5.04973 116.252C5.66153 115.893 6.42365 115.879 7.04875 116.216C7.87933 116.663 8.62214 117.194 9.27629 117.682C9.8421 118.103 10.318 118.471 10.8066 118.815C10.6629 117.993 10.718 117.143 11.1181 116.329C11.1198 116.326 11.1213 116.322 11.123 116.318C1.34476 101.31 -1.95192 84.9429 1.0966 67.5332L1.23625 66.7656C7.28194 34.4163 34.1223 16.2536 54.9579 12.8877C55.3693 12.8212 55.777 12.883 56.1337 13.0459C58.4305 11.5183 60.9804 10.3871 63.746 9.62594C63.4053 8.30404 63.2874 7.04319 63.4726 5.85446C63.7687 3.95481 64.8005 2.46591 66.371 1.34664L66.3759 1.34274ZM116.912 125.873C90.7842 150.184 49.998 150.07 24.2782 126.024L24.078 126.215C23.0846 127.246 23.628 128.033 24.6669 128.902C43.6601 144.768 65.2779 149.653 89.4228 143.443C100.232 140.66 109.602 135.207 117.806 127.652C117.495 127.028 117.223 126.479 116.912 125.873ZM33.9784 129.981C44.6317 137.233 56.4905 141 69.496 141.284C69.5932 141 69.6909 140.736 69.788 140.471C68.7382 140.073 67.7077 139.41 66.6191 139.334C56.1407 138.596 46.4786 135.548 37.5361 130.171C36.5836 129.603 35.2815 129.565 34.1347 129.3L33.9784 129.981ZM106.899 129.205C105.752 129.546 104.45 129.66 103.459 130.266C94.5163 135.605 84.8738 138.653 74.3954 139.353C73.3651 139.429 72.3927 140.167 71.4013 140.603L71.8525 140.666C81.8697 141.878 99.8597 136.092 107.094 129.83C107.035 129.622 106.958 129.413 106.899 129.205ZM35.203 38.0019C33.5701 36.4118 31.2375 35.9389 29.6435 37.0937C28.8076 37.6996 27.8741 38.6465 27.6991 39.5742C27.3882 41.3159 27.6025 43.1334 27.6025 45.2158C21.7509 46.2382 22.7612 51.2935 22.4696 55.6103C17.532 55.1182 15.0242 56.5951 13.3329 60.874C11.9139 64.509 12.5357 67.9171 14.7128 71.041C15.7432 72.5178 17.066 73.8248 18.2519 75.207C16.0357 79.2966 15.8019 83.5945 18.3486 87.3623C20.4285 90.4483 20.9541 93.5532 20.7597 96.999C20.7402 97.4723 20.8365 97.9456 20.7782 98.4189C20.0784 105.349 24.5693 109.78 28.7489 114.399C29.9153 115.668 30.8103 117.164 31.8212 118.546C31.6462 118.678 31.4513 118.81 31.2763 118.962C29.935 118.432 28.5934 117.958 27.2909 117.353C23.5197 115.649 19.5736 115.365 15.5302 115.819C12.7697 116.141 12.0503 117.674 13.3915 120.098C13.7414 120.722 14.15 121.328 14.6943 122.199C10.8646 122.256 8.86178 119.417 6.08195 117.921C6.19868 124.282 9.60055 127.709 16.6962 128.864C21.3618 129.622 23.9089 127.198 23.2675 122.654C23.2092 122.238 23.0727 121.821 22.9755 121.404C24.6085 122.824 26.0277 124.377 27.1747 126.119C28.3023 127.804 29.8189 128.581 31.8017 128.751C34.2122 128.94 36.623 128.05 39.1113 129.47C40.2777 130.132 42.455 129.319 44.1269 128.959C46.3236 128.486 48.4619 128.107 50.5614 129.3C50.6587 129.357 50.8143 129.299 50.9892 129.28V128.106C48.8507 127.671 45.9731 128.769 45.4677 125.569C42.9406 125.342 40.5298 124.775 38.1777 124.964C33.4149 125.361 29.3911 124.452 25.9696 120.912C24.706 119.606 22.6642 118.849 20.8368 118.3C19.8843 118.016 18.6207 118.754 17.5126 119.038C18.2319 119.947 18.9709 120.818 19.6513 121.727C20.2151 122.484 21.3035 123.657 21.0702 124.036C20.5454 124.869 19.4571 125.683 18.4657 125.853C14.7721 126.478 11.797 124.945 8.70598 122.143C12.458 123.411 15.5493 125.229 19.2236 123.771C18.2321 122.56 16.9681 121.745 16.0155 120.666C15.4129 119.984 14.8689 118.829 15.0439 118.034C15.18 117.409 16.3847 116.747 17.2206 116.576C21.0309 115.781 24.4915 116.917 27.0771 119.549C29.6043 122.124 32.3851 123.412 36.0204 123.279C38.5279 123.184 39.5774 122.067 38.8193 119.7C38.3333 118.205 37.5364 116.993 35.787 116.425C31.9768 115.194 29.6627 112.487 28.3407 108.833C27.9519 107.754 27.33 106.636 26.4941 105.841C21.8869 101.354 20.2732 96.1471 21.8866 89.956C22.1005 89.1608 21.9455 88.1001 21.5761 87.3427C17.6492 79.1824 20.1175 72.5934 28.5546 68.9961C31.1985 67.86 32.1516 68.1068 34.0956 70.3789C26.3 74.6768 22.6642 79.8264 23.9667 84.3515C25.8719 82.2499 27.6608 79.845 29.8964 77.8759C33.8427 74.4112 37.1087 70.4543 39.6747 65.9482C40.083 65.2288 40.4526 64.4715 40.9775 63.4492C32.2099 67.0276 28.6322 66.3647 27.6796 61.2529C33.6672 63.6385 37.8085 63.146 40.1025 59.7949C35.8452 61.5935 30.6546 61.5745 29.0214 57.4853C38.0611 61.8967 42.9411 55.7621 48.3261 49.8359C48.1123 50.8014 48.0149 51.3695 47.8788 51.9375C45.1377 62.8999 39.4997 72.3665 32.1513 80.9433C29.8573 83.6129 27.9713 86.4912 27.2714 89.956C26.5522 93.4964 26.825 96.942 28.8466 100.482C29.6047 96.7527 29.9351 93.2689 31.1015 90.0693C32.3263 86.7181 35.3787 84.7113 38.6835 82.8369C38.9557 86.1501 38.3532 88.9335 36.8564 91.5273C35.4178 94.0076 33.9595 96.4882 32.2099 99.5175C34.3092 99.0632 35.7476 98.7599 37.1083 98.457C37.4582 99.1764 37.7506 99.7819 38.1005 100.482C40.2971 98.0023 42.3387 95.7113 44.3798 93.4394C44.5352 93.5151 44.6903 93.5913 44.8456 93.667C44.2625 94.8976 43.738 96.1852 43.0771 97.3779C42.1634 99.0251 40.938 100.54 40.2187 102.263C38.7997 105.671 40.3166 109.381 43.5048 110.233C45.3516 110.726 47.3735 110.669 49.1425 110.82C48.015 108.548 46.5372 106.636 46.1484 104.534C45.5654 101.505 46.7904 99.4227 48.7538 98.6464C46.5959 103.266 48.6565 106.428 52.2724 109.154C56.0438 111.994 59.8925 114.778 63.4306 117.864C65.1219 119.341 66.5995 121.31 67.4355 123.336C68.5629 126.062 67.7658 128.826 65.5302 130.928C63.3334 132.972 60.6313 133.352 57.8124 132.424C54.2356 131.269 53.3994 127.406 56.1015 124.736C56.1792 125.626 56.1598 126.517 56.3154 127.35C56.5875 128.732 57.4434 129.602 58.9404 129.811C62.9448 130.341 65.511 127.331 64.2284 123.62C62.6343 119.019 57.7735 116.671 52.5829 117.978C53.1078 122.465 52.8554 122.957 49.7255 124.604C49.0258 124.964 48.5205 125.703 47.9374 126.27C48.7148 126.592 49.4727 126.971 50.2695 127.255C50.5611 127.35 50.9311 127.255 51.0478 127.255C52.0392 125.418 52.758 123.657 53.8466 122.143C55.2074 120.249 57.6573 119.662 59.5624 120.438C61.2926 121.139 62.6728 123.601 62.4784 125.627C62.3228 127.217 61.2732 128.012 59.621 127.766C57.988 127.519 57.0741 126.667 57.4823 124.982C57.7157 123.96 58.1824 122.995 58.5517 121.991C55.5579 121.613 53.5162 123.279 52.8163 126.573C52.0387 130.227 53.186 132.764 56.4325 133.37C58.8237 133.806 61.3513 133.446 63.8202 133.56C64.6755 133.597 65.706 133.863 66.3085 134.374C67.7858 135.661 69.0494 137.157 70.6239 138.785C72.1791 137.176 73.4623 135.945 74.6093 134.62C75.5035 133.598 76.4753 133.389 77.8554 133.503C80.2271 133.673 82.6964 133.73 85.0292 133.313C87.5759 132.859 88.7809 130.89 88.7226 128.391C88.6447 125.191 86.9734 122.484 84.6601 121.935C84.0574 121.802 83.4153 121.916 82.6572 121.916C83.0654 122.976 83.591 123.771 83.6493 124.604C83.7271 125.456 83.6487 126.763 83.1044 127.103C82.3268 127.615 80.9276 127.804 80.0917 127.463C79.4113 127.179 78.8866 125.891 78.8671 125.02C78.77 123.014 80.3055 120.912 81.9384 120.363C83.9018 119.701 86.2542 120.363 87.5956 122.294C88.6259 123.771 89.3061 125.475 90.2392 127.273C90.7251 127.236 91.4249 127.274 92.0663 127.103C92.5523 126.971 92.9415 126.573 93.3886 126.27C93.0582 125.816 92.7665 125.324 92.3583 124.945C92.0667 124.68 91.6388 124.585 91.2695 124.395C88.6842 123.108 88.2175 122.237 88.5868 119.397C88.6452 118.886 88.723 118.375 88.8202 117.599C87.09 117.75 85.5347 117.807 83.9794 118.034C80.208 118.564 77.6418 120.95 76.8642 124.566C76.2422 127.387 77.8364 129.375 81.0829 129.792C83.7657 130.152 85.0873 128.883 85.204 125.835C85.204 125.513 85.2823 125.172 85.3212 124.623C87.9455 128.239 86.7401 131.742 82.8134 132.67C78.0116 133.806 73.637 130.568 73.5009 125.759C73.4233 122.446 75.0958 119.984 77.623 117.996C81.2192 115.156 84.8153 112.316 88.5087 109.59C92.3384 106.769 94.9244 103.607 92.8447 98.4384C93.7192 99.2713 94.4187 100.142 94.788 101.107C96.1683 104.837 94.6914 107.848 91.3671 110.594C92.9805 110.669 93.9332 110.783 94.9052 110.745C100.659 110.499 103.225 106.257 100.64 101.202C99.9398 99.8202 98.89 98.6276 98.1513 97.2646C97.5098 96.1097 97.0629 94.8592 96.538 93.6474C96.6741 93.5907 96.8297 93.5528 96.9657 93.4961C99.0069 95.7869 101.048 98.0971 103.206 100.52C103.595 99.6875 103.867 99.0439 104.14 98.457C105.636 98.7599 107.036 99.0436 108.785 99.4033C106.374 93.7613 101.593 89.4631 102.682 82.9502C107.969 85.8091 111.294 89.7097 111.683 95.5791C111.78 97.1127 111.799 98.6275 111.877 100.161C112.188 100.199 112.518 100.237 112.829 100.256C113.296 98.4761 113.977 96.7336 114.21 94.916C114.89 89.6149 112.751 85.1845 109.35 81.2275C101.826 72.4992 96.0913 62.8618 93.2919 51.7099C93.1558 51.1798 93.1165 50.6307 92.9804 49.8545C98.1904 55.7617 103.012 61.783 112.538 57.4472C110.963 59.7381 109.194 60.8167 107.036 60.7978C105.014 60.7978 102.992 60.306 100.893 60.041C104.819 63.4111 109.019 63.9792 113.645 61.0068C112.362 66.2699 109.738 66.7433 100.407 63.6006C100.621 64.1115 100.776 64.5468 100.971 64.9443C103.517 69.6965 106.822 73.881 110.885 77.5351C112.945 79.3906 114.598 81.6634 116.426 83.7461C116.698 84.0678 116.97 84.3705 117.397 84.9004C117.767 81.322 116.834 78.3495 114.54 76.0586C112.324 73.8433 109.719 72.0064 107.056 69.8291C108.222 69.3367 109.602 68.2199 110.749 68.4091C117.339 69.4694 122.024 75.4904 121.247 81.833C121.014 83.7831 120.041 85.6577 119.477 87.5888C119.283 88.2515 119.031 89.0279 119.206 89.6338C121.033 96.2037 119.284 101.695 114.19 106.296C113.627 106.807 113.198 107.583 112.984 108.303C111.779 112.335 109.233 115.118 105.17 116.576C103.187 117.277 101.728 119.643 102.311 121.556C102.525 122.256 103.517 123.184 104.217 123.241C107.833 123.525 111.06 122.805 113.724 119.946C116.465 116.974 120.119 115.743 124.26 116.633C126.612 117.125 127.099 118.754 125.446 120.458C124.649 121.272 123.599 121.878 122.744 122.635C122.433 122.919 122.102 123.487 122.199 123.79C122.296 124.112 122.899 124.396 123.308 124.453C123.91 124.529 124.552 124.491 125.154 124.358C127.429 123.771 129.703 123.127 132.444 122.37C131.181 123.26 130.306 123.922 129.393 124.49C127.137 125.872 124.629 126.402 122.044 125.759C121.266 125.569 120.313 124.756 120.1 124.036C119.944 123.487 120.722 122.578 121.247 121.973C121.733 121.424 122.53 121.139 123.016 120.59C123.385 120.173 123.716 119.435 123.56 119.019C123.424 118.621 122.627 118.299 122.102 118.224C119.284 117.864 116.892 118.773 115.103 120.912C113.159 123.241 110.671 124.623 107.658 124.869C103.712 125.191 99.7265 125.248 95.7802 125.437C95.0609 127.634 94.6329 127.918 91.581 128.013C90.609 128.051 89.6759 127.918 90.3368 129.433C92.6113 128.107 94.9439 128.561 97.3544 129.034C99.2012 129.413 101.359 129.848 102.973 129.224C104.333 128.712 105.403 128.504 106.764 128.675C109.991 129.091 112.751 128.542 114.501 125.361C115.356 123.828 116.776 122.578 118.098 121.025C117.981 122.37 117.806 123.374 117.845 124.358C117.981 127.274 119.595 128.997 122.472 128.997C125.854 128.997 129.043 128.126 131.706 125.968C134.058 124.037 135.283 120.855 134.894 117.978C130.54 120.906 127.779 122.18 126.612 121.802L127.293 120.836C129.334 117.712 128.537 116.027 124.785 115.743C120.8 115.421 116.931 115.857 113.276 117.599C112.149 118.148 110.944 118.508 109.777 118.962C109.602 118.773 109.427 118.583 109.252 118.394C111.41 115.667 113.296 112.676 115.804 110.29C118.059 108.151 119.614 105.822 119.925 102.868C120.294 99.4034 120.256 95.882 120.47 92.3984C120.509 91.6979 120.625 90.8832 121.033 90.372C124.688 85.62 125.757 80.5839 123.152 75.6425C124.941 72.8025 126.982 70.4922 127.974 67.8037C130.423 61.177 125.64 54.9855 118.7 55.6103C118.622 54.2093 118.331 52.8079 118.467 51.4257C118.739 48.4347 117.087 46.8066 114.618 45.6328C114.074 45.3677 113.529 45.1406 112.984 44.8945C114.501 41.6379 113.995 38.7031 111.701 37.1884C109.971 36.0337 107.56 36.4115 105.889 38.1533C106.18 38.229 106.472 38.248 106.647 38.3994C107.386 38.9862 108.085 39.6302 108.785 40.2548C107.872 40.8228 106.92 41.9396 106.045 41.8642C104.47 41.7506 102.973 40.9178 101.437 40.3877C99.7656 39.8197 98.113 39.2325 96.4023 38.7402C96.033 38.6456 95.3331 38.8163 95.1191 39.1191C94.0887 40.5202 93.2139 42.0163 92.1835 43.3984C91.8725 43.8339 91.2888 44.3828 90.8222 44.3828C87.2453 44.4206 83.6685 44.4398 80.0722 44.4209H75.6786C76.4366 44.5723 77.1751 44.7995 77.8554 45.1591L78.0888 45.2724H89.4618C90.7643 45.2725 91.8339 45.8032 91.8339 47.2422C91.8337 48.6618 90.8225 49.2108 89.4814 49.2109H78.6913C79.1578 49.2298 79.1583 49.2295 78.4589 49.2295H52.0976C50.6785 49.2295 49.3172 49.0216 49.2587 47.3369C49.2004 45.5193 50.6202 45.2353 52.1171 45.2353H62.9648L63.1786 45.1211C63.8784 44.7614 64.6365 44.5153 65.414 44.3828C60.0293 44.3828 54.7806 44.3826 52.5253 44.4394C50.7563 44.4773 49.2198 44.3452 48.2089 42.7548H48.248C45.7013 37.8132 44.865 37.7187 40.0243 40.1611C39.5385 40.4073 39.1301 40.8045 38.6054 41.0127C37.6528 41.3724 36.603 41.9782 35.6894 41.8457C34.5424 41.6752 32.7928 41.0881 32.5595 40.2929C32.0738 38.7787 33.8034 38.5893 34.9892 38.2675C35.0864 38.2297 35.1447 38.0966 35.203 38.0019ZM66.5029 138.218C64.2867 134.261 61.3122 137.441 58.9599 136.645L58.8241 137.214C61.2735 137.536 63.7231 137.858 66.5029 138.218ZM77.7001 136.153C76.1291 135.907 75.7113 136.248 75.037 138.218C77.5448 137.877 79.9556 137.555 82.3661 137.214C82.3273 137.1 82.2879 136.986 82.2685 136.892C80.8494 136.664 79.4299 136.495 78.0497 136.229L77.7001 136.153ZM51.2226 131.95C50.0951 129.773 49.0643 128.977 46.5566 129.375L45.9062 129.509C44.3454 129.795 42.7977 130.199 41.2499 130.53C41.1916 130.72 41.152 130.909 41.0937 131.117C45.5455 132.878 49.9979 134.658 54.5859 136.494C53.2445 134.695 52.0002 133.446 51.2226 131.95ZM94.4384 129.356C92.8832 129.11 91.3666 129.357 90.4335 130.814C89.3256 132.556 88.2762 134.317 87.0517 136.305C91.3867 134.563 95.6637 132.84 99.9599 131.136C99.921 130.928 99.8816 130.7 99.8427 130.492C98.0349 130.095 96.2657 129.64 94.4384 129.356ZM72.9765 115.63C72.5488 117.959 71.8488 119.909 71.9072 121.84C71.9655 124.358 72.3929 126.914 73.1122 129.338C73.5787 130.909 73.7151 132.083 72.5488 133.333L72.2802 133.616C71.7128 134.293 71.2221 135.084 70.5077 136.078C69.4191 134.544 68.4275 133.238 67.5527 131.855C67.3583 131.552 67.4362 130.966 67.5917 130.568C69.5163 125.835 70.0018 121.064 67.9218 116.217C68.0579 116.084 68.2134 115.951 68.3495 115.838C69.0881 116.33 69.8266 116.803 70.5263 117.258C71.2261 116.803 71.985 116.293 72.9765 115.63ZM70.3905 128.391C69.0557 130.145 69.1073 131.831 70.5458 133.446C72.9564 130.928 72.9372 130.322 70.3905 128.391ZM81.2577 121.858C80.6162 123.43 80.0142 124.377 79.9169 125.361L79.8974 125.448C79.9517 125.887 80.7813 126.416 81.2187 126.895C81.7047 126.384 82.5993 125.835 82.5605 125.361C82.4632 124.358 81.8798 123.411 81.2577 121.858ZM60.6318 122.521C60.3013 122.521 59.9896 122.559 59.6591 122.578C59.212 123.866 57.813 125.002 58.9794 126.517C59.2325 126.857 60.3208 126.573 61.0204 126.573L60.8163 124.538C60.7531 123.866 60.6901 123.194 60.6318 122.521ZM101.149 117.454C99.6427 117.085 98.5893 117.786 97.8603 118.887C97.1411 120.004 96.6544 121.272 96.0712 122.465C97.3931 122.938 98.7347 123.411 100.465 124.036C100.465 122.276 100.348 121.253 100.504 120.307C100.659 119.36 101.126 118.47 101.437 117.542L101.149 117.454ZM39.9472 117.504C40.2971 119.416 40.666 121.329 41.0937 123.582L41.8036 123.53C42.5335 123.467 43.3098 123.406 44.0097 123.165C44.5151 122.995 45.1572 122.294 45.1572 121.802C45.1957 119.795 41.8912 117.277 39.9472 117.504ZM48.8505 123.582C51.0473 122.579 51.9219 121.234 51.5331 119.416C50.9693 116.69 48.7731 117.693 47.082 117.429C47.704 119.606 48.2868 121.613 48.8505 123.582ZM94.1083 117.504C92.5336 117.712 90.4145 116.614 89.6952 119.246C89.1898 121.158 90.1032 122.597 92.3193 123.562C92.9025 121.575 93.4863 119.586 94.1083 117.504ZM50.4452 101.335C51.0479 105.519 53.8471 107.451 56.6659 109.325C60.3206 111.768 63.9367 114.21 66.4833 118.11C61.7205 114.494 57.1325 110.991 52.5058 107.526L52.1757 107.249C50.4882 105.845 49.698 104.139 50.4452 101.335ZM90.6669 101.96C91.4833 104.307 90.5308 106.068 88.6259 107.507L83.1464 111.63C81.3262 113.007 79.5082 114.39 77.7001 115.781C76.7282 116.52 75.8535 117.391 74.6288 117.978C75.4648 116.993 76.1452 115.838 77.1366 115.043C80.0527 112.695 83.0462 110.461 86.0595 108.227C88.2368 106.598 90.1808 104.838 90.6669 101.96ZM55.2851 14.8086C35.0088 18.0842 8.66713 35.9575 3.06828 67.8603C0.07446 84.9573 3.35982 100.975 13.08 115.686C13.7604 115.403 14.2658 115.213 14.9267 114.929L14.58 114.338C14.4754 114.172 14.3824 114.03 14.2851 113.888C-9.04311 77.0242 9.05605 30.1072 51.5136 17.1377C52.8938 16.7211 54.041 15.6038 55.2851 14.8086ZM86.0966 14.581C86.0163 14.6947 85.9332 14.8081 85.8456 14.9218C87.2842 15.717 88.6457 16.6638 90.162 17.3076C93.8945 18.8979 97.8409 20.0726 101.418 21.9091C135.827 39.6499 147.414 81.1326 127.099 113.509C126.807 113.944 126.554 114.418 126.243 114.948C126.71 115.137 127.079 115.326 127.448 115.459C127.623 115.516 127.837 115.497 128.323 115.535C141.037 94.6704 143.02 72.9725 132.444 50.8203C123.21 31.4892 107.327 19.6179 86.3124 14.2597L86.0966 14.581ZM25.0361 111.086C23.8502 111.881 22.6834 112.676 21.4198 113.547C23.0917 115.932 24.978 116.065 26.5527 114.247L25.8085 112.679C25.5607 112.16 25.3082 111.635 25.0361 111.086ZM116.134 111.104C115.57 112.221 115.124 113.168 114.618 114.172L114.755 114.364C116.191 116.089 118.259 115.837 119.652 113.472C118.466 112.676 117.281 111.881 116.134 111.104ZM35.5536 100.218C34.4068 100.312 33.2598 100.445 32.0546 100.559C29.0802 105.254 34.1153 113.831 40.2001 114.513C45.0407 115.043 49.9594 115.081 54.8388 115.327C53.789 113.358 52.3495 112.751 50.4638 113.017L49.8183 113.105C48.2627 113.303 46.6829 113.434 45.1181 113.434C40.1997 113.434 36.6613 109.609 37.1279 104.856C37.2056 104.061 37.4195 103.266 37.5556 102.471C37.7888 101.24 36.7977 100.104 35.5536 100.218ZM48.8114 21.0566C48.2284 21.2648 47.6454 21.473 47.0624 21.7002C38.0615 25.2218 30.3235 30.4857 23.7138 37.3965C3.96254 57.9961 1.31899 90.2782 17.5517 113.472C18.0766 114.21 19.165 114.589 19.9814 115.138C20.1368 114.948 20.2928 114.74 20.4677 114.551C20.0983 114.021 19.7287 113.471 19.3593 112.941C7.8506 95.5226 5.51847 76.9867 13.0224 57.6367C19.1267 41.903 30.5181 30.807 46.3036 23.9531C47.5089 23.423 48.5011 22.4198 49.5898 21.6435L49.415 21.3593C49.3422 21.2648 49.269 21.1706 49.2011 21.0761C49.065 21.0761 48.9281 21.0187 48.8114 21.0566ZM106.434 100.445C104.023 100.161 103.283 100.9 103.75 103.228C105.033 109.552 101.262 113.793 94.6523 113.414L93.6366 113.32C92.6025 113.262 91.5712 113.187 90.5507 113.017C88.6456 112.695 87.3037 113.471 85.8652 115.061C89.9476 115.061 93.7001 115.175 97.4521 115.023C99.2793 114.948 101.165 114.55 102.876 113.944C108.28 111.975 111.196 105.519 109.018 100.445C108.086 100.445 107.25 100.521 106.434 100.445ZM91.6005 21.7002C92.7669 22.4953 93.8165 23.5177 95.0995 24.0478C122.86 35.7677 137.869 65.3994 130.462 93.9511C128.537 101.411 125.232 108.227 120.566 114.626C122.355 115.251 123.055 114.342 123.794 113.263L124.307 112.515C145.725 79.9227 130.985 35.6388 93.7773 21.5683C93.1942 21.3412 92.6112 21.1515 92.0087 20.9433C91.8727 21.1893 91.7365 21.4541 91.6005 21.7002ZM21.1669 107.734C20.2922 108.227 19.4561 108.719 18.4648 109.268L20.623 112.657C21.7505 111.881 22.6643 111.237 23.5585 110.612C22.6837 109.571 21.964 108.7 21.1669 107.734ZM119.983 107.753C119.147 108.775 118.447 109.647 117.611 110.65C118.583 111.294 119.497 111.938 120.527 112.619C121.266 111.483 121.908 110.537 122.705 109.344L119.983 107.753ZM121.092 103.001C120.47 105.475 121.234 107.204 123.386 108.188L125.193 104.781C124.085 104.27 123.171 103.815 122.238 103.398C121.869 103.228 121.5 103.133 121.092 103.001ZM15.9384 104.762L16.9081 106.534C17.2216 107.09 17.5228 107.621 17.8241 108.151C19.8977 107.179 20.6624 105.412 20.1181 102.85C18.6602 103.512 17.3963 104.099 15.9384 104.762ZM70.5458 97.1884C72.6065 100.104 75.1538 101.562 78.4003 101.619C79.8581 101.638 80.7913 101.96 80.8886 103.55C81.0052 105.557 80.2276 107.147 78.5947 107.299C77.3505 107.412 76.0088 107.147 74.7646 106.807C71.9458 106.011 69.185 106.068 66.3857 106.807C65.2778 107.091 64.1116 107.412 62.9843 107.394C61.0987 107.337 60.2431 106.031 60.2236 103.853C60.1847 102.017 61.1758 101.638 62.828 101.619C66.0745 101.562 68.5824 100.028 70.5458 97.1884ZM94.6913 95.7871C99.5903 100.804 100.018 101.714 99.5322 105.235C97.9964 102.263 96.3438 99.0247 94.6913 95.7871ZM46.3818 95.8252C44.7488 99.0248 43.0963 102.206 41.58 105.159C40.2777 101.108 43.8934 98.703 46.3818 95.8252ZM14.9462 99.6308C14.6352 99.7444 14.3629 99.9144 13.8964 100.142C14.4407 101.353 14.9466 102.49 15.4521 103.626C20.9535 101.165 20.1954 102.357 19.8066 97.9082C18.0375 98.533 16.482 99.0818 14.9462 99.6308ZM121.48 97.9453C120.683 101.656 120.858 101.884 125.776 103.531L127.234 99.9902C125.174 99.2518 123.347 98.6079 121.48 97.9453ZM59.7177 57.2382C60.9425 55.6101 63.0426 54.9095 64.8505 55.9697C66.8917 57.1625 68.6799 58.7533 71.0322 60.4951C71.8292 59.6241 72.7234 58.3366 73.9286 57.3711C74.959 56.5569 76.2619 55.8758 77.5644 55.5918C79.3722 55.1942 80.7911 56.1784 81.6659 57.7119C82.5408 59.2455 81.899 60.5706 80.7714 61.7256C80.4409 62.0474 80.091 62.3504 79.7411 62.6533C79.8577 62.7668 79.9553 62.9376 80.0136 62.9189C81.7436 62.5971 83.4738 61.9341 85.165 62.0097C86.7785 62.0855 88.3346 63.0139 89.9482 63.3925C91.4451 63.7338 94.0496 66.4782 94.2636 68.0117L94.4794 69.6591C94.9926 73.3694 95.571 77.0904 96.1493 81C93 81.9088 88.956 82.3068 85.8261 85.7148C85.1846 83.8404 84.5048 82.2118 84.0771 80.5078C83.98 80.1291 84.6799 79.4101 85.1464 79.0693C88.2179 76.873 90.3757 74.1269 91.1728 70.416C91.5031 68.9206 91.0945 68.2205 89.4423 67.9365C88.3148 67.7471 87.1674 67.1601 86.2148 66.4785C84.6985 65.3804 83.2014 64.9256 81.3935 65.664C79.6635 66.3835 78.5361 67.5013 78.3417 69.3945C78.2057 70.6629 78.05 71.9316 77.8945 73.2568C80.0328 73.484 80.1886 70.6064 82.4628 70.8144C84.154 70.9659 85.9622 70.0759 87.8866 69.6025C87.634 70.3406 87.4207 70.9844 87.207 71.6279C87.3042 71.7225 87.4204 71.7989 87.537 71.8935C88.4702 70.9279 89.4033 69.9809 90.2392 69.1289C90.8613 72.6694 87.6729 77.0428 82.2685 79.6367C82.8517 81.5868 83.3188 83.6322 84.0575 85.5634C84.5823 86.9644 84.4263 88.0243 83.3183 89.0088C80.7716 91.3186 80.5584 94.0073 82.1913 96.8662C82.8328 98.0021 82.4635 98.7411 81.5888 99.4795C79.7225 101.032 77.2922 101.297 74.8427 99.8955C73.3264 99.0056 72.0038 97.8133 70.5458 96.6963C69.2434 97.6997 67.9411 98.9119 66.4443 99.8017C63.956 101.297 61.4089 101.07 59.5038 99.4609C58.6096 98.7036 58.2989 97.9649 58.9208 96.8291C60.5344 93.9701 60.3006 91.2809 57.7734 88.9521C56.6851 87.9488 56.5299 86.9076 57.0546 85.5068C57.7933 83.5757 58.2594 81.5495 58.8232 79.6562C57.7152 79.0693 56.7237 78.5197 55.7323 77.9707C52.5832 75.7365 50.8722 72.1957 50.6972 69.8291C51.3387 70.3213 52.3887 71.1741 53.4579 71.9882C53.6134 71.8558 53.7498 71.7233 53.9052 71.5908C53.6914 70.9471 53.4579 70.3029 53.2441 69.6591C56.3934 71.3631 60.6708 69.905 62.9648 73.54C63.0425 72.0067 62.8862 70.7572 62.789 69.5078C62.614 67.5387 61.4671 66.3458 59.6591 65.6074C57.8513 64.8692 56.3542 65.3804 54.8573 66.4785C53.9243 67.1599 52.7581 67.7087 51.6308 67.917C50.095 68.182 49.6282 68.845 49.9198 70.2461C50.5225 73.1618 52.5834 76.8162 55.1884 78.3877C56.0241 79.0312 56.9565 79.6937 56.9374 80.3183C56.918 82.0223 55.9852 83.7266 55.3437 85.6767C52.2722 82.3257 48.2869 81.8337 44.9433 80.9629C45.6043 76.4945 46.2654 72.1392 46.8681 67.7656C47.0821 66.213 49.8034 63.5438 51.4169 63.4492C51.4946 63.4492 51.553 63.4869 51.6113 63.4492C54.7606 62.4646 57.9297 61.6315 61.2929 63.2597C61.3123 63.0515 61.3506 62.8616 61.37 62.6533C61.098 62.3884 60.8062 62.1614 60.5341 61.8965C58.8817 60.2493 58.6096 58.734 59.7177 57.2382ZM121.033 93.0605C121.383 94.5752 121.266 96.2988 121.966 96.7343L122.265 96.9189C123.878 97.8119 125.826 98.2366 127.74 98.9111C128.148 97.5291 128.498 96.4117 128.887 95.1054C126.301 94.4428 123.949 93.8178 121.033 93.0605ZM15.9599 94.1523C14.7376 94.4718 13.4979 94.7936 12.2245 95.125C12.6716 96.4881 13.0409 97.6051 13.4491 98.8925C14.9848 98.3625 16.2099 97.9461 17.4345 97.5107C20.3116 96.5073 20.3314 96.45 19.5927 93.1748L15.9599 94.1523ZM103.284 84.9951C104.47 89.9178 107.891 93.1366 110.749 96.999C111.041 91.319 108.494 87.2292 103.284 84.9951ZM37.9052 85.0713C33.7063 86.34 29.5852 91.3191 30.6542 96.7148C33.3758 93.0608 36.6804 89.8612 37.9052 85.0713ZM20.1562 91.8496C17.4734 88.7256 15.8214 88.5169 11.0976 90.4101L11.4833 92.1211C11.617 92.7152 11.7584 93.3355 11.914 94.0078C14.6743 93.2884 17.2792 92.5879 20.1562 91.8496ZM130.034 90.0693C126.827 89.861 123.522 87.5136 121.111 91.8867L125.242 92.9472C126.593 93.2975 127.934 93.6481 129.295 94.0078C129.586 92.4363 129.801 91.3378 130.034 90.0693ZM64.9863 81.2841C63.7615 83.7076 61.1569 85.2221 62.7314 87.8916C63.6062 89.3684 64.9283 90.8077 66.5224 90.4101C68.0192 91.565 69.166 93.1365 70.4101 93.1933C71.4793 93.25 72.6654 91.6219 73.7929 90.7509C74.0067 90.5805 74.2207 90.3158 74.4345 90.2968C78.3805 89.9749 79.9355 86.9267 77.7587 83.7461C77.2922 83.0456 76.7671 82.4014 76.0673 81.417L76.039 81.6816C75.877 84.1762 79.7554 85.295 77.7978 87.5507C72.8016 86.9827 68.2324 86.7749 63.4306 87.6269C61.2342 85.2603 65.6278 84.0484 64.9863 81.2841ZM74.9784 87.6455C74.3952 88.4785 73.8117 89.5017 73.0341 90.3916C72.3343 91.1867 71.4015 92.4169 70.6435 92.3603C69.7299 92.2846 68.8158 91.149 68.0771 90.3349C67.28 89.4829 66.6779 88.4596 66.0947 87.6455H74.9784ZM15.2577 84.6162C13.722 84.7298 12.1473 84.8625 10.2812 84.9951C10.495 86.4718 10.6503 87.6269 10.8446 88.9521C12.9053 88.5924 14.7135 88.2896 16.5409 87.9677C16.0938 86.7749 15.7049 85.7901 15.2577 84.6162ZM125.913 84.6357C125.466 85.8095 125.097 86.794 124.669 87.9677C126.554 88.2896 128.343 88.5922 130.364 88.914C130.52 87.5131 130.675 86.3015 130.831 84.9384L128.245 84.7968C127.439 84.7448 126.671 84.6925 125.913 84.6357ZM10.0087 79.9775C10.067 81.3028 10.1253 82.4772 10.203 83.8593C11.9916 83.6889 13.5859 83.5372 15.2577 83.3857C15.3549 82.174 15.4329 81.1324 15.5107 79.9775H10.0087ZM125.641 79.9775C125.757 81.1892 125.834 82.2314 125.951 83.4052C127.603 83.5567 129.159 83.689 130.928 83.8593C131.025 82.534 131.103 81.3407 131.181 79.9775H125.641ZM97.9374 70.4921C99.2594 72.1394 100.465 73.7681 101.826 75.3017L102.309 75.8623C103.496 77.158 104.783 78.3609 106.025 79.6367C105.889 79.7692 105.753 79.9212 105.617 80.0537C102.293 77.4787 98.7734 75.0551 97.9374 70.4921ZM43.33 70.2646C42.6885 74.4677 39.2473 77.3648 35.165 79.8261C38.0032 76.4939 40.8611 73.1613 43.33 70.2646ZM123.502 75.3769C124.571 76.7591 125.135 78.2738 126.107 78.5957C127.585 79.0688 129.334 78.7285 131.161 78.7285C131.064 77.2896 131.005 76.0776 130.928 74.7334C128.517 74.9416 126.34 75.1308 123.502 75.3769ZM10.203 78.5576C17.0849 78.8984 15.8605 79.2773 16.9491 75.3203C14.7524 75.1309 12.5748 74.9602 10.203 74.7519V78.5576ZM15.705 73.5595C13.9359 72.5561 14.052 69.2991 10.7665 69.8671L10.5527 71.6894C10.4895 72.3001 10.4264 72.9254 10.3583 73.5976C12.2246 73.7491 13.8386 73.8815 15.4716 73.9951C15.5494 73.8436 15.6272 73.711 15.705 73.5595ZM130.345 69.792C127.06 69.5649 127.157 72.5372 125.66 73.9951C127.332 73.8625 128.984 73.7491 130.87 73.5976C130.676 72.1967 130.52 71.0225 130.345 69.792ZM14.2861 66.081C15.4914 69.1858 17.7268 70.6623 20.6816 71.2871C20.701 71.5331 20.7402 71.7793 20.7597 72.0254C20.157 72.12 19.4761 72.461 18.9706 72.3095L18.6952 72.1943C15.8842 71.1588 14.1732 68.8688 14.2861 66.081ZM126.885 65.8535C126.982 68.8449 125.077 71.3065 122.122 72.2343C121.617 72.3858 120.936 72.0446 120.333 71.9121C120.372 71.685 120.411 71.439 120.45 71.2119C123.463 70.587 125.699 69.0531 126.885 65.8535ZM55.1259 67.8828C55.9946 66.6179 57.0963 65.9967 58.5907 66.4404C60.1263 66.8948 61.1758 67.8605 61.1952 69.7158C58.843 69.9619 56.7046 70.0753 54.955 68.163L55.1259 67.8828ZM82.3466 66.4785C83.96 65.8916 85.0874 66.743 86.04 67.8789L85.8095 68.2148C84.5287 69.8086 82.7785 70.1856 79.9355 69.5644C79.8188 67.8604 80.9469 66.9897 82.3466 66.4785ZM16.1708 58.7529C17.0456 56.9734 18.5819 56.4813 21.8476 57.125C20.9534 57.4278 20.3116 57.5986 19.7284 57.8447C18.1736 58.4885 17.649 59.7001 17.7851 61.2715C17.9212 62.7483 18.9319 63.4678 20.2538 63.5625C21.984 63.6761 23.7142 63.5054 25.872 63.4297C26.4552 64.0733 27.3493 65.0771 28.5351 66.4023L27.0595 66.5107C23.6812 66.732 20.4555 66.9373 17.5126 64.9824C15.6464 63.7517 15.1211 60.8923 16.1708 58.7529ZM119.4 57.1064C122.452 56.2734 124.261 56.8982 125.058 58.9619C126.127 61.745 125.115 64.4712 122.433 65.5693C119.342 66.8567 116.114 66.6103 112.635 66.2695L114.139 64.6201C114.588 64.1112 114.997 63.6476 115.376 63.2216C116.989 63.3542 118.584 63.6189 120.178 63.581C121.791 63.5431 123.21 62.9945 123.347 61.0634C123.483 59.2649 122.666 58.1092 120.897 57.5791C120.47 57.4466 120.022 57.3146 119.4 57.1064ZM86.4677 58.4131C87.4591 60.4009 88.8398 61.7637 91.7363 61.5175L91.37 61.8398C89.5617 63.2366 88.1201 62.9024 86.662 62.0859C85.5347 61.4612 85.5542 61.4229 86.4677 58.4131ZM54.6249 58.4316C54.8194 59.7569 56.2181 61.0444 54.4296 62.0478C52.8551 62.9375 51.2808 63.1833 49.3564 61.6308C52.0196 61.5929 53.6529 60.5521 54.6249 58.4316ZM80.5966 53.9062C83.0071 53.2246 83.7264 54.607 84.329 56.0459L84.5234 56.4795C85.3016 58.6978 84.6651 60.2625 82.4052 61.5937C83.9021 58.5644 82.7545 56.1593 80.5966 53.9062ZM56.6464 56.2734C57.2296 54.7777 57.9104 53.2244 60.4765 53.8681L60.0927 54.3183C58.232 56.477 57.2309 58.7344 58.707 61.5742C56.3548 60.3057 55.7329 58.6399 56.6464 56.2734ZM29.0214 48.4345C32.0929 46.6359 35.3587 45.5001 38.7607 46.4277C39.3633 46.9768 39.8888 47.6205 40.5693 48.0371C41.3857 48.5482 42.4932 48.6623 43.1347 49.2871C43.7568 49.874 44.4957 51.1989 44.2236 51.6533L44.1513 51.7334C43.6472 52.4087 42.5334 52.9448 41.6767 52.998C40.8409 53.0545 39.9662 52.2403 39.0527 51.9375C36.992 51.2369 34.9314 50.3849 32.8124 49.9873C30.8295 49.6275 29.9547 50.5363 30.5185 52.4297C31.1406 54.4933 32.307 56.3865 33.2402 58.3554C33.2013 58.5069 33.1814 58.6776 33.1425 58.8291C32.1316 58.0718 30.6929 57.4848 30.207 56.4814C29.235 54.4556 28.6907 52.2026 28.1464 50.0254C28.0298 49.571 28.5548 48.6996 29.0214 48.4345ZM27.5829 46.8818C22.4895 50.4224 24.3756 54.5126 26.8251 58.8105C23.0731 56.3681 22.8001 55.6293 23.7138 49.8925L23.7695 49.7041C24.1832 47.8084 26.0198 47.4871 27.5829 46.8818ZM113.665 46.8437C116.736 47.4874 117.378 49.4758 117.689 52.3535C118 55.288 117.281 57.2004 114.404 58.7529C114.793 57.8822 114.929 57.1064 115.395 56.6142C117.359 54.5883 116.581 52.1265 116.348 49.9492C116.231 48.8322 114.618 47.885 113.665 46.8437ZM101.903 45.9355C105.83 45.4054 109.194 46.6549 112.382 48.5293C112.634 48.6807 112.849 49.0216 112.946 49.3056C113.626 51.5778 111.351 56.8976 109.213 58.0146L109.022 58.1142C108.613 58.2915 108.132 58.4057 107.503 58.6211C108.611 56.5952 109.816 54.9857 110.399 53.206C111.313 50.4419 110.399 49.438 107.503 50.0058C105.52 50.4034 103.634 51.3502 101.709 52.0507C100.892 52.3727 100.037 53.0542 99.2597 52.9785C98.3849 52.8838 97.1597 52.2782 96.8681 51.5966C96.6154 51.0097 97.2578 49.6839 97.8993 49.2295C99.0462 48.4156 100.484 48.0178 101.903 47.4121V45.9355ZM50.7997 52.4267C50.9019 52.7417 50.9797 52.9882 51.0478 53.206C53.05 52.8463 54.9355 52.524 56.8017 52.2021C56.8794 52.3535 56.9378 52.5052 57.0155 52.6377C55.8102 53.7169 54.5852 54.7967 53.3993 55.8759C51.4359 53.7744 50.9113 56.708 49.7255 56.9922C49.5117 56.1403 49.2976 55.288 49.0644 54.455C48.8313 54.455 48.5981 54.4557 48.3456 54.4179C48.9677 53.4523 49.5896 52.4863 50.3866 51.2177L50.7997 52.4267ZM92.7665 54.4746C92.5334 54.4746 92.2809 54.4931 92.0478 54.4931C91.834 55.3261 91.6005 56.1592 91.3866 56.9922C90.3174 56.6703 89.6754 54.247 87.7509 55.7236C87.1872 55.2503 86.5652 54.7011 85.9238 54.209C85.3406 53.7546 84.7373 53.3007 84.1347 52.8652C84.1735 52.676 84.1935 52.5056 84.2323 52.3164C86.0791 52.5814 87.9259 52.8459 90.0253 53.1298C90.142 52.8458 90.3954 52.2586 90.7841 51.331C91.5423 52.5238 92.1444 53.49 92.7665 54.4746ZM61.6816 52.789C62.8674 51.8237 64.403 51.9376 65.997 52.373L66.2988 52.4746C67.8467 53.0261 68.5823 54.2293 68.8739 55.3828C66.4635 54.5119 64.092 53.6599 61.6816 52.789ZM72.3544 55.3076C73.0543 52.2404 76.6896 50.8956 79.2363 52.8457C77.0007 53.6409 74.59 54.5124 72.3544 55.3076ZM123.443 50.5556C119.809 51.6725 119.147 52.3917 119.73 54.7011C121.48 54.5497 123.23 54.4174 125.407 54.247C124.552 52.6379 124.007 51.5969 123.443 50.5556ZM17.7265 50.4795C17.1627 51.5586 16.5995 52.6759 15.7636 54.2851C17.9407 54.4366 19.6708 54.5501 21.5175 54.6826C21.9452 52.297 21.6923 52.0131 17.7265 50.4795ZM120.488 45.9355C119.73 46.5221 119.148 46.9387 118.778 47.2226C118.992 48.6048 119.186 49.7225 119.4 51.1425C120.547 50.4988 121.539 49.9497 122.705 49.2871C121.927 48.1321 121.246 47.0905 120.488 45.9355ZM18.4462 49.2871C19.6124 49.9307 20.643 50.4983 21.7509 51.123C22.0036 49.6841 22.2168 48.472 22.4306 47.1845C21.9058 46.8249 21.3614 46.4651 20.6034 45.9541C19.8453 47.1279 19.2044 48.1132 18.4462 49.2871ZM70.2548 35.4843C69.3606 37.0369 68.8739 38.7978 68.8739 40.5586C68.874 41.3915 68.9716 42.2058 69.1855 43.0009C68.9134 42.6602 68.6214 42.3194 68.3105 42.0166C67.2996 41.032 66.0355 40.3122 64.6552 39.9336L64.0527 39.7627L64.2275 40.3496C64.8107 42.2808 66.1332 43.9856 67.9023 45.0459C67.5524 45.008 67.2024 44.9697 66.8525 44.9697C65.7251 44.9697 64.5782 45.2346 63.5868 45.7646L63.0224 46.0488L63.5868 46.3515C64.5977 46.8816 65.6861 47.1474 66.8525 47.1474H67.2997C66.9693 47.4125 66.6775 47.7344 66.4443 48.0752L66.0361 48.6425L66.7548 48.5859C67.9407 48.4912 69.5737 47.9043 70.5263 46.2382C71.4983 47.9043 73.1315 48.4912 74.3173 48.5859L75.0175 48.6425L74.6093 48.0752C74.3761 47.7344 74.0842 47.4125 73.7538 47.1474H74.2587C75.4057 47.1474 76.495 46.8817 77.5253 46.3515L78.0888 46.0488L77.5253 45.7646C76.5144 45.2345 75.3862 44.9697 74.2587 44.9697C73.9091 44.9697 73.5595 44.9891 73.2099 45.0459C74.9594 43.9856 76.3005 42.2807 76.8837 40.3496L77.039 39.7627L76.4364 39.9336C75.0562 40.3122 73.793 41.0321 72.7822 42.0166C72.4711 42.3195 72.1793 42.6601 71.9072 43.0009C72.1015 42.2058 72.2177 41.3915 72.2177 40.5586C72.2177 38.7789 71.732 37.0179 70.8378 35.4843L70.5458 34.9726L70.2548 35.4843ZM21.3622 45.0078C22.1592 45.5378 22.7617 45.9356 23.3837 46.3711C24.3946 45.5948 25.347 44.875 26.455 44.042C25.5414 43.2847 24.725 42.6219 23.7919 41.8457C22.9365 42.9627 22.1787 43.9475 21.3622 45.0078ZM114.676 44.0605L116.275 45.2353C116.785 45.6138 117.281 45.9831 117.786 46.3711C118.428 45.9167 119.011 45.4998 119.769 44.9697C118.914 43.8905 118.156 42.9059 117.32 41.8457C116.368 42.6409 115.55 43.3221 114.676 44.0605ZM39.2079 42.7734C40.3938 41.3345 42.669 40.7661 45.4101 41.6181C46.3431 41.9211 47.2377 42.3762 48.1513 42.7548C48.5786 44.3637 47.1984 45.0075 46.2265 45.6132C45.8182 45.8594 44.7483 45.0836 43.9902 44.7617C42.3573 44.0801 40.7048 43.3982 39.2079 42.7734ZM94.4189 42.0351C97.3933 40.5394 100.193 40.9559 102.409 43.209C100.018 42.906 98.1319 43.5691 96.4989 45.1406L96.4423 45.2246C96.0236 45.5452 95.0952 45.7306 94.7304 45.5C93.9722 45.0266 93.3302 44.2503 92.9609 43.455C92.864 43.2277 93.8163 42.357 94.4189 42.0351ZM109.232 38.248C111.41 38.1344 112.499 38.7599 113.082 40.3125C113.568 41.5998 113.431 42.6974 111.585 43.4736C112.693 40.7853 111.448 39.365 109.232 38.248ZM31.0458 38.3672C30.5639 38.8849 29.865 39.5338 29.5077 40.3125C29.1385 41.1644 29.2357 42.2248 29.1191 43.1904C28.9247 43.2661 28.749 43.3412 28.5546 43.417C28.3407 42.4893 27.8744 41.5616 27.9716 40.6718C28.166 39.0814 29.3913 38.3426 31.2187 38.1533L31.0458 38.3672ZM46.207 37.0556C47.3733 38.8731 48.2672 40.5393 49.4335 41.997C49.9584 42.6597 51.0282 43.2473 51.8642 43.2851L52.7743 43.3047C55.2014 43.3463 59.958 43.3603 64.9081 43.3603C64.6943 43.0764 64.4805 42.7729 64.3056 42.4511C59.6598 42.4322 55.4028 42.3945 53.5751 42.3945C51.3979 42.3945 50.0556 41.8838 49.2197 39.9716C48.9281 39.328 48.5006 38.7218 48.0341 37.9267H68.4267C68.5044 37.6238 68.602 37.3396 68.6991 37.0556H46.207ZM72.3739 37.0556C72.4711 37.3396 72.5677 37.6428 72.6454 37.9267H93.2138C92.2807 39.3845 91.5611 40.6716 90.6669 41.8076C90.3754 42.1862 89.6174 42.3378 89.0536 42.3379C86.3709 42.3757 83.7072 42.3953 81.0439 42.3574C80.9661 42.3574 80.9271 42.357 80.8105 42.3759C79.9939 42.4138 78.5549 42.4322 76.7665 42.4511C76.5916 42.7541 76.3973 43.0578 76.164 43.3418H79.08C82.4626 43.3418 85.8458 43.3415 89.2284 43.3037L89.5009 43.3193C90.117 43.3033 90.8785 43.218 91.1337 42.8867C92.475 41.0692 93.6224 39.1382 94.9443 37.0556H72.3739ZM47.1005 24.9384C40.8604 27.4944 35.1641 30.9776 29.5849 35.957C34.1534 35.1239 36.6027 36.6205 37.0693 40.1611C39.577 39.063 42.0268 37.983 44.6318 36.8281C44.6318 36.866 44.5345 36.4309 44.4179 35.9765C44.9622 35.844 45.4684 35.7302 45.6239 35.6923C46.1294 31.9815 46.6145 28.4789 47.1005 24.9384ZM95.6044 35.6923C95.7405 35.7302 96.2268 35.8629 96.7128 35.9765C96.5962 36.4498 96.5186 36.8472 96.538 36.7715C99.2208 37.9643 101.67 39.0438 103.887 40.0283L104 39.8418C104.659 38.7864 105.223 37.3098 106.316 36.582C107.541 35.7679 109.33 35.7685 110.788 35.4277C107.541 31.8682 97.6458 25.8275 94.1659 25.2216C94.6325 28.5729 95.099 32.0003 95.6044 35.6923ZM73.8896 3.12692C72.0233 1.63122 69.4772 1.55575 67.5527 2.91891C65.1615 4.62293 64.7533 7.12212 66.3085 11.0224C60.2431 12.2342 55.2466 15.1499 51.6113 20.0537L51.2978 20.4746C47.921 25.2393 46.5073 30.5119 47.3925 36.6015H68.8544C69.0488 36.0903 69.2824 35.6163 69.5546 35.124L70.5263 33.458L71.4989 35.124C71.7711 35.5973 72.0038 36.0903 72.1982 36.6015H91.0556C94.0493 36.6015 94.1269 36.5254 94.1269 33.5341C94.1269 23.4238 87.1678 14.3736 77.1757 11.5713C76.3982 11.363 75.6396 11.1359 74.8427 10.9277C76.4368 7.3682 76.1058 4.88773 73.8896 3.12692ZM67.747 15.9072C67.8248 16.3236 67.9609 16.759 67.9609 17.1943C67.9609 22.0413 67.9212 26.8883 67.9989 31.7353C68.0184 33.0605 67.4359 33.7237 66.3085 34.1591L66.0116 34.2539C62.7679 35.372 60.0367 34.5015 57.871 32.209C56.1214 33.1935 54.43 34.1398 52.4277 35.2568C50.9891 26.1498 58.4934 17.0432 67.747 15.9072ZM50.0751 32.3037C50.5028 32.6634 51.2413 33.0041 51.2802 33.3828C51.3188 33.856 50.7366 34.3671 50.2118 35.2187C49.5897 34.4803 48.9084 34.0068 48.9667 33.666C49.0641 33.1551 49.6864 32.7578 50.0751 32.3037ZM91.0947 32.3222C91.5028 32.7575 92.1436 33.1551 92.2411 33.666C92.3189 33.9878 91.6387 34.4803 91.0361 35.2187L90.832 34.9463C90.3559 34.2965 89.9117 33.8536 89.9286 33.4394C89.9286 33.0607 90.6864 32.7009 91.0947 32.3222ZM73.1904 16.0586C81.7828 16.021 90.6086 26.6611 88.6259 35.1621L83.2988 32.2656C80.3633 34.8782 77.3499 35.5405 74.5116 33.9502C73.9479 33.6471 73.248 32.9089 73.248 32.3789C73.1508 26.9451 73.1904 21.5113 73.1904 16.0586ZM66.7363 20.6406C56.6661 19.675 53.8666 25.7716 53.5556 33.5722L54.1757 33.1757C54.7971 32.803 55.3585 32.4835 55.8105 32.0576C56.4714 31.4328 56.9384 30.5996 57.5605 29.7666C58.1045 30.4478 58.5318 31.0726 59.037 31.6025C60.67 33.3823 63.334 34.1018 65.453 33.2119C65.9778 32.9846 66.6579 32.3414 66.6777 31.8681C66.7749 28.1194 66.7363 24.3704 66.7363 20.6406ZM74.4345 30.4853C74.4345 32.8899 75.0566 33.4965 77.5644 33.5722C80.4025 33.6479 82.133 32 83.4355 29.9931C84.8352 31.2806 86.0986 32.4359 87.3622 33.5908C87.5177 33.4393 87.693 33.2686 87.8486 33.1172C87.7124 28.8762 86.1567 25.1844 83.1825 22.0605C82.9104 21.7766 82.5411 21.4543 82.1718 21.3974L80.3173 21.1308C78.4329 20.8548 76.5048 20.6023 74.4345 20.3183V30.4853ZM70.4101 29.7851C70.9155 29.7473 71.4595 30.2779 72.412 30.789C71.5181 31.4137 71.0512 32.0002 70.5458 32.0381L70.4726 32.0146C70.089 31.9535 69.4553 31.3316 69.4189 30.9589C69.3994 30.5613 70.0213 29.823 70.4101 29.7851ZM90.8613 28.9707C91.2693 29.0085 91.969 29.6899 91.9501 30.0498C91.9112 30.542 91.3084 30.9967 90.6669 31.8486C90.1421 30.921 89.6173 30.3906 89.6562 29.8984C89.676 29.5387 90.4725 28.9518 90.8613 28.9707ZM50.2499 28.3838C50.8915 29.0843 51.5719 29.5201 51.5136 29.8798C51.4358 30.391 50.8527 30.8079 50.4833 31.2812C50.0362 30.9404 49.2781 30.6179 49.2392 30.2392C49.2006 29.766 49.764 29.2356 50.2499 28.3838ZM70.6923 26.3105C71.0453 26.3013 71.584 26.8628 72.2763 27.3242C71.596 27.9111 71.1291 28.6114 70.7792 28.5547C70.2544 28.4789 69.8073 27.8913 69.3407 27.5127C69.7683 27.0772 70.1186 26.4342 70.6239 26.3017L70.6923 26.3105ZM51.3193 24.9384C51.9219 25.8093 52.4863 26.3013 52.5058 26.8125C52.5058 27.1722 51.747 27.8164 51.3388 27.8164C50.9305 27.8162 50.1728 27.1722 50.1728 26.8125C50.1728 26.3013 50.7556 25.8091 51.3193 24.9384ZM89.9863 25.5439C90.3167 25.4871 90.803 26.1693 91.5029 26.7373C90.8031 27.2484 90.2776 27.8726 89.9472 27.7968C89.442 27.683 89.0533 27.0775 88.6064 26.6611C89.0534 26.2635 89.4809 25.6576 89.9863 25.5439ZM70.6239 22.8554C71.1099 23.0448 71.6545 23.6695 71.7323 24.1806C71.7712 24.5214 71.0516 24.9757 70.4101 25.6572C69.9241 24.8243 69.3994 24.2939 69.4189 23.8017C69.4584 23.423 70.3713 22.7419 70.6239 22.8554ZM52.8359 22.458C53.244 22.458 53.9818 23.1011 53.9823 23.4609C53.9823 23.9532 53.4191 24.446 52.8359 25.3359C52.2332 24.446 51.6698 23.9532 51.6698 23.4609C51.6704 23.1011 52.4083 22.458 52.8359 22.458ZM88.2177 22.4384C88.723 22.4197 89.2674 22.9499 90.2001 23.4609C89.3059 24.0857 88.8393 24.6545 88.3144 24.6923C87.9451 24.7109 87.2455 24.0108 87.2255 23.6132C87.2061 23.2156 87.8483 22.4574 88.2177 22.4384ZM55.0986 19.3349C55.5793 19.8904 56.0924 20.3043 56.0243 20.6025C55.9271 21.0947 55.2656 21.4737 54.8573 21.9091C54.4491 21.4737 53.8081 21.0752 53.7109 20.583C53.6531 20.2422 54.333 19.7691 54.9159 19.0879L55.0986 19.3349ZM86.5546 19.5771C86.8991 19.6055 87.3704 20.2249 88.081 20.8105C87.2063 21.3027 86.6811 21.8519 86.1757 21.833C85.8063 21.8322 85.0685 20.9437 85.165 20.6972C85.3594 20.205 85.9818 19.6743 86.4872 19.5986L86.5546 19.5771ZM70.5458 18.8222C71.129 19.6174 71.7315 20.1102 71.7509 20.6025C71.7507 20.9811 71.0321 21.3788 70.6239 21.7763C70.1963 21.3409 69.5355 20.9809 69.4189 20.4697C69.3217 20.1289 69.9821 19.5985 70.5458 18.8222ZM57.4765 17.1972C57.8876 17.5517 58.3936 17.8809 58.5126 18.3115C58.6096 18.6334 57.9874 19.1633 57.4238 19.9394C56.8213 19.1446 56.219 18.6714 56.2187 18.1982C56.2187 17.8197 56.9178 17.4218 57.3261 17.0244L57.4765 17.1972ZM74.8818 17.1943C74.6875 17.4024 74.493 17.6105 74.2988 17.7998C74.5903 18.3108 74.8037 19.1436 75.1923 19.2197L75.7499 19.3418C77.058 19.5574 78.4144 19.6155 79.7411 19.7314C79.7995 19.5421 79.8391 19.3715 79.8974 19.2011C78.2256 18.5385 76.5536 17.8569 74.8818 17.1943ZM83.7655 17.1181C84.271 17.156 84.7569 17.7248 85.6318 18.3496C84.6796 18.8606 84.1546 19.3711 83.6493 19.3525C83.2801 19.3336 82.6383 18.577 82.6767 18.1982C82.7156 17.7817 83.3962 17.0992 83.7655 17.1181ZM61.3505 19.2392C64.8627 19.4286 66.574 18.7024 66.4833 17.0615C64.5782 17.8756 62.9641 18.5576 61.3505 19.2392ZM70.5068 15.8691C70.9539 16.2856 71.5954 16.6454 71.7509 17.1377L71.7577 17.1816C71.7491 17.5076 71.1549 18.0144 70.663 18.6709C70.0798 18.0271 69.3605 17.5728 69.4189 17.2509C69.4967 16.7399 70.118 16.3233 70.5068 15.8691ZM60.3788 14.6006C60.9037 15.3767 61.5454 15.9072 61.4482 16.248C61.3119 16.7401 60.6898 17.2886 60.1845 17.4023C59.8929 17.4591 59.0766 16.6645 59.1152 16.3047C59.154 15.8124 59.7762 15.3579 60.3788 14.6006ZM80.9657 15.1494C81.3351 15.0736 81.8406 15.699 82.6376 16.248C81.8214 16.797 81.3548 17.3644 80.83 17.4023C80.4608 17.4212 79.6839 16.6083 79.7607 16.3427C79.8967 15.8506 80.4798 15.2632 80.9657 15.1494ZM77.9394 13.4414C78.4125 14.0292 78.8935 14.4703 78.8085 14.7519C78.6724 15.2441 78.0115 15.604 77.5644 16.0205C77.1756 15.5471 76.5533 15.1303 76.4755 14.6191C76.4175 14.2972 77.1171 13.8236 77.7197 13.1611L77.9394 13.4414ZM63.8085 13.6894C64.1507 13.7191 64.6023 14.352 65.2587 14.8847C64.52 15.3959 63.9748 16.039 63.6249 15.9443C63.1198 15.8116 62.7311 15.1687 62.3036 14.7334C62.7702 14.3547 63.2171 13.7671 63.7226 13.6914L63.8085 13.6894ZM70.5263 12.499C70.9539 12.499 71.7506 13.0855 71.7509 13.4453C71.7509 13.9375 71.2269 14.4681 70.6825 15.3769C70.0411 14.525 69.4384 14.0703 69.4189 13.5781C69.3994 13.2185 70.118 12.5183 70.5263 12.499ZM67.0273 12.2334C67.5908 12.9904 68.2518 13.5019 68.1552 13.8427C68.0386 14.335 67.3964 14.7143 66.9687 15.1308C66.5604 14.7522 65.8223 14.3538 65.8417 13.9941C65.8421 13.502 66.4442 13.0283 67.0273 12.2334ZM73.9872 12.7832C74.4926 12.7454 75.0563 13.2558 75.9892 13.748C75.1144 14.4107 74.6479 15.0168 74.1425 15.0547C73.7731 15.0925 73.0535 14.3921 73.0146 13.9756C72.9758 13.5779 73.5984 12.821 73.9872 12.7832ZM70.8622 2.45407C72.9125 2.60514 74.6114 4.50706 74.6679 6.79977C74.7262 9.24208 72.8985 11.2871 70.663 11.3252C68.369 11.363 66.5605 9.39334 66.5605 6.91305C66.5606 4.45185 68.4275 2.42597 70.663 2.46383L70.8622 2.45407ZM70.6825 4.20602C69.8466 4.79293 68.9716 5.37993 68.3495 5.81539C68.6606 6.74308 68.9716 7.72796 69.1855 8.39059H71.9843C72.2759 7.61432 72.6652 6.59135 72.9179 5.92868C72.0627 5.26613 71.2269 4.62256 70.6825 4.20602Z" fill="white"></path>
</svg>